<mxfile host="app.diagrams.net" agent="Mozilla/5.0 (Windows NT 10.0; Win64; x64) AppleWebKit/537.36 (KHTML, like Gecko) Chrome/128.0.0.0 Safari/537.36" version="24.7.7">
  <diagram name="Page-1" id="__zYB2avestHgSzXgM5q">
    <mxGraphModel dx="1593" dy="864" grid="1" gridSize="10" guides="1" tooltips="1" connect="1" arrows="1" fold="1" page="1" pageScale="1" pageWidth="850" pageHeight="1100" math="0" shadow="0">
      <root>
        <mxCell id="0" />
        <mxCell id="1" parent="0" />
        <mxCell id="UaLpdsbaOxjxOq8PMlWL-1" value="" style="endArrow=none;dashed=1;html=1;dashPattern=1 3;strokeWidth=2;rounded=0;" edge="1" parent="1">
          <mxGeometry width="50" height="50" relative="1" as="geometry">
            <mxPoint x="210" y="690" as="sourcePoint" />
            <mxPoint x="210" y="370" as="targetPoint" />
          </mxGeometry>
        </mxCell>
        <mxCell id="UaLpdsbaOxjxOq8PMlWL-9" value="" style="edgeStyle=orthogonalEdgeStyle;rounded=0;orthogonalLoop=1;jettySize=auto;html=1;" edge="1" parent="1" source="UaLpdsbaOxjxOq8PMlWL-3" target="UaLpdsbaOxjxOq8PMlWL-6">
          <mxGeometry relative="1" as="geometry" />
        </mxCell>
        <mxCell id="UaLpdsbaOxjxOq8PMlWL-43" value="HTTP&lt;div&gt;API&lt;/div&gt;&lt;div&gt;REQ&lt;/div&gt;" style="edgeLabel;html=1;align=center;verticalAlign=middle;resizable=0;points=[];" vertex="1" connectable="0" parent="UaLpdsbaOxjxOq8PMlWL-9">
          <mxGeometry x="-0.2603" y="1" relative="1" as="geometry">
            <mxPoint as="offset" />
          </mxGeometry>
        </mxCell>
        <mxCell id="UaLpdsbaOxjxOq8PMlWL-3" value="Browser&lt;div&gt;Usuário&lt;/div&gt;" style="shape=umlActor;verticalLabelPosition=bottom;verticalAlign=top;html=1;outlineConnect=0;" vertex="1" parent="1">
          <mxGeometry x="40" y="500" width="30" height="60" as="geometry" />
        </mxCell>
        <mxCell id="UaLpdsbaOxjxOq8PMlWL-13" value="" style="edgeStyle=orthogonalEdgeStyle;rounded=0;orthogonalLoop=1;jettySize=auto;html=1;" edge="1" parent="1" source="UaLpdsbaOxjxOq8PMlWL-4" target="UaLpdsbaOxjxOq8PMlWL-12">
          <mxGeometry relative="1" as="geometry" />
        </mxCell>
        <mxCell id="UaLpdsbaOxjxOq8PMlWL-4" value="Proxy Reverso" style="rounded=1;whiteSpace=wrap;html=1;horizontal=0;" vertex="1" parent="1">
          <mxGeometry x="230" y="370" width="50" height="320" as="geometry" />
        </mxCell>
        <mxCell id="UaLpdsbaOxjxOq8PMlWL-5" value="IP Quente" style="text;html=1;align=center;verticalAlign=middle;whiteSpace=wrap;rounded=0;" vertex="1" parent="1">
          <mxGeometry x="180" y="330" width="60" height="30" as="geometry" />
        </mxCell>
        <mxCell id="UaLpdsbaOxjxOq8PMlWL-11" value="" style="edgeStyle=orthogonalEdgeStyle;rounded=0;orthogonalLoop=1;jettySize=auto;html=1;" edge="1" parent="1" source="UaLpdsbaOxjxOq8PMlWL-6" target="UaLpdsbaOxjxOq8PMlWL-4">
          <mxGeometry relative="1" as="geometry" />
        </mxCell>
        <mxCell id="UaLpdsbaOxjxOq8PMlWL-6" value="DNS Server" style="rounded=1;whiteSpace=wrap;html=1;horizontal=0;" vertex="1" parent="1">
          <mxGeometry x="140" y="370" width="50" height="320" as="geometry" />
        </mxCell>
        <mxCell id="UaLpdsbaOxjxOq8PMlWL-7" value="" style="endArrow=none;dashed=1;html=1;dashPattern=1 3;strokeWidth=2;rounded=0;" edge="1" parent="1">
          <mxGeometry width="50" height="50" relative="1" as="geometry">
            <mxPoint x="120" y="690" as="sourcePoint" />
            <mxPoint x="120" y="370" as="targetPoint" />
          </mxGeometry>
        </mxCell>
        <mxCell id="UaLpdsbaOxjxOq8PMlWL-8" value="DNS" style="text;html=1;align=center;verticalAlign=middle;whiteSpace=wrap;rounded=0;" vertex="1" parent="1">
          <mxGeometry x="90" y="330" width="60" height="30" as="geometry" />
        </mxCell>
        <mxCell id="UaLpdsbaOxjxOq8PMlWL-22" style="edgeStyle=orthogonalEdgeStyle;rounded=0;orthogonalLoop=1;jettySize=auto;html=1;entryX=0;entryY=0.5;entryDx=0;entryDy=0;" edge="1" parent="1" source="UaLpdsbaOxjxOq8PMlWL-12" target="UaLpdsbaOxjxOq8PMlWL-16">
          <mxGeometry relative="1" as="geometry" />
        </mxCell>
        <mxCell id="UaLpdsbaOxjxOq8PMlWL-12" value="..." style="text;html=1;align=center;verticalAlign=middle;whiteSpace=wrap;rounded=0;" vertex="1" parent="1">
          <mxGeometry x="310" y="515" width="40" height="30" as="geometry" />
        </mxCell>
        <mxCell id="UaLpdsbaOxjxOq8PMlWL-16" value="" style="rounded=0;whiteSpace=wrap;html=1;fontColor=none;noLabel=1;" vertex="1" parent="1">
          <mxGeometry x="370" y="370" width="115" height="320" as="geometry" />
        </mxCell>
        <mxCell id="UaLpdsbaOxjxOq8PMlWL-17" style="edgeStyle=orthogonalEdgeStyle;rounded=0;orthogonalLoop=1;jettySize=auto;html=1;exitX=0.5;exitY=1;exitDx=0;exitDy=0;entryX=0.5;entryY=0;entryDx=0;entryDy=0;" edge="1" parent="1" source="UaLpdsbaOxjxOq8PMlWL-14" target="UaLpdsbaOxjxOq8PMlWL-15">
          <mxGeometry relative="1" as="geometry" />
        </mxCell>
        <mxCell id="UaLpdsbaOxjxOq8PMlWL-14" value="API" style="rounded=1;whiteSpace=wrap;html=1;horizontal=1;" vertex="1" parent="1">
          <mxGeometry x="382.5" y="380" width="90" height="140" as="geometry" />
        </mxCell>
        <mxCell id="UaLpdsbaOxjxOq8PMlWL-15" value="DB" style="rounded=1;whiteSpace=wrap;html=1;horizontal=1;" vertex="1" parent="1">
          <mxGeometry x="382.5" y="540" width="90" height="140" as="geometry" />
        </mxCell>
        <mxCell id="UaLpdsbaOxjxOq8PMlWL-23" value="" style="endArrow=none;dashed=1;html=1;dashPattern=1 3;strokeWidth=2;rounded=0;" edge="1" parent="1">
          <mxGeometry width="50" height="50" relative="1" as="geometry">
            <mxPoint x="210" y="290" as="sourcePoint" />
            <mxPoint x="210" y="80" as="targetPoint" />
          </mxGeometry>
        </mxCell>
        <mxCell id="UaLpdsbaOxjxOq8PMlWL-24" value="" style="edgeStyle=orthogonalEdgeStyle;rounded=0;orthogonalLoop=1;jettySize=auto;html=1;" edge="1" parent="1" source="UaLpdsbaOxjxOq8PMlWL-25" target="UaLpdsbaOxjxOq8PMlWL-30">
          <mxGeometry relative="1" as="geometry" />
        </mxCell>
        <mxCell id="UaLpdsbaOxjxOq8PMlWL-25" value="Browser&lt;div&gt;Usuário&lt;/div&gt;" style="shape=umlActor;verticalLabelPosition=bottom;verticalAlign=top;html=1;outlineConnect=0;" vertex="1" parent="1">
          <mxGeometry x="40" y="155" width="30" height="60" as="geometry" />
        </mxCell>
        <mxCell id="UaLpdsbaOxjxOq8PMlWL-26" value="" style="edgeStyle=orthogonalEdgeStyle;rounded=0;orthogonalLoop=1;jettySize=auto;html=1;" edge="1" parent="1" source="UaLpdsbaOxjxOq8PMlWL-27" target="UaLpdsbaOxjxOq8PMlWL-34">
          <mxGeometry relative="1" as="geometry" />
        </mxCell>
        <mxCell id="UaLpdsbaOxjxOq8PMlWL-41" style="edgeStyle=orthogonalEdgeStyle;rounded=0;orthogonalLoop=1;jettySize=auto;html=1;exitX=0;exitY=0.75;exitDx=0;exitDy=0;entryX=1;entryY=0.75;entryDx=0;entryDy=0;" edge="1" parent="1" source="UaLpdsbaOxjxOq8PMlWL-27" target="UaLpdsbaOxjxOq8PMlWL-30">
          <mxGeometry relative="1" as="geometry" />
        </mxCell>
        <mxCell id="UaLpdsbaOxjxOq8PMlWL-27" value="Proxy Reverso" style="rounded=1;whiteSpace=wrap;html=1;horizontal=0;" vertex="1" parent="1">
          <mxGeometry x="230" y="80" width="50" height="210" as="geometry" />
        </mxCell>
        <mxCell id="UaLpdsbaOxjxOq8PMlWL-28" value="IP Quente" style="text;html=1;align=center;verticalAlign=middle;whiteSpace=wrap;rounded=0;" vertex="1" parent="1">
          <mxGeometry x="180" y="40" width="60" height="30" as="geometry" />
        </mxCell>
        <mxCell id="UaLpdsbaOxjxOq8PMlWL-29" value="" style="edgeStyle=orthogonalEdgeStyle;rounded=0;orthogonalLoop=1;jettySize=auto;html=1;" edge="1" parent="1" source="UaLpdsbaOxjxOq8PMlWL-30" target="UaLpdsbaOxjxOq8PMlWL-27">
          <mxGeometry relative="1" as="geometry" />
        </mxCell>
        <mxCell id="UaLpdsbaOxjxOq8PMlWL-30" value="DNS Server" style="rounded=1;whiteSpace=wrap;html=1;horizontal=0;" vertex="1" parent="1">
          <mxGeometry x="140" y="80" width="50" height="210" as="geometry" />
        </mxCell>
        <mxCell id="UaLpdsbaOxjxOq8PMlWL-31" value="" style="endArrow=none;dashed=1;html=1;dashPattern=1 3;strokeWidth=2;rounded=0;" edge="1" parent="1">
          <mxGeometry width="50" height="50" relative="1" as="geometry">
            <mxPoint x="120" y="290" as="sourcePoint" />
            <mxPoint x="120" y="80" as="targetPoint" />
          </mxGeometry>
        </mxCell>
        <mxCell id="UaLpdsbaOxjxOq8PMlWL-32" value="DNS" style="text;html=1;align=center;verticalAlign=middle;whiteSpace=wrap;rounded=0;" vertex="1" parent="1">
          <mxGeometry x="90" y="40" width="60" height="30" as="geometry" />
        </mxCell>
        <mxCell id="UaLpdsbaOxjxOq8PMlWL-33" style="edgeStyle=orthogonalEdgeStyle;rounded=0;orthogonalLoop=1;jettySize=auto;html=1;entryX=0;entryY=0.5;entryDx=0;entryDy=0;" edge="1" parent="1" source="UaLpdsbaOxjxOq8PMlWL-34" target="UaLpdsbaOxjxOq8PMlWL-35">
          <mxGeometry relative="1" as="geometry" />
        </mxCell>
        <mxCell id="UaLpdsbaOxjxOq8PMlWL-34" value="..." style="text;html=1;align=center;verticalAlign=middle;whiteSpace=wrap;rounded=0;" vertex="1" parent="1">
          <mxGeometry x="310" y="170" width="40" height="30" as="geometry" />
        </mxCell>
        <mxCell id="UaLpdsbaOxjxOq8PMlWL-40" style="edgeStyle=orthogonalEdgeStyle;rounded=0;orthogonalLoop=1;jettySize=auto;html=1;exitX=0;exitY=0.75;exitDx=0;exitDy=0;entryX=1;entryY=0.75;entryDx=0;entryDy=0;" edge="1" parent="1" source="UaLpdsbaOxjxOq8PMlWL-35" target="UaLpdsbaOxjxOq8PMlWL-27">
          <mxGeometry relative="1" as="geometry" />
        </mxCell>
        <mxCell id="UaLpdsbaOxjxOq8PMlWL-35" value="Storage&lt;div&gt;Front Stático&lt;/div&gt;" style="rounded=0;whiteSpace=wrap;html=1;fontColor=default;" vertex="1" parent="1">
          <mxGeometry x="370" y="80" width="115" height="210" as="geometry" />
        </mxCell>
        <mxCell id="UaLpdsbaOxjxOq8PMlWL-42" style="edgeStyle=orthogonalEdgeStyle;rounded=0;orthogonalLoop=1;jettySize=auto;html=1;exitX=0;exitY=0.75;exitDx=0;exitDy=0;entryX=0.5;entryY=0.5;entryDx=0;entryDy=0;entryPerimeter=0;" edge="1" parent="1" source="UaLpdsbaOxjxOq8PMlWL-30" target="UaLpdsbaOxjxOq8PMlWL-25">
          <mxGeometry relative="1" as="geometry" />
        </mxCell>
      </root>
    </mxGraphModel>
  </diagram>
</mxfile>
